<?xml version="1.0" encoding="utf-8"?>
<!-- Generator: Adobe Illustrator 16.0.3, SVG Export Plug-In . SVG Version: 6.00 Build 0)  -->
<!DOCTYPE svg PUBLIC "-//W3C//DTD SVG 1.1//EN" "http://www.w3.org/Graphics/SVG/1.1/DTD/svg11.dtd">
<svg version="1.1" id="Camada_1" xmlns="http://www.w3.org/2000/svg" xmlns:xlink="http://www.w3.org/1999/xlink" x="0px" y="0px"
	 width="590.702px" height="149.174px" viewBox="2.289 346.359 590.702 149.174"
	 enable-background="new 2.289 346.359 590.702 149.174" xml:space="preserve">
<path fill="#043045" stroke="#CDAA04" stroke-width="4" stroke-miterlimit="10" d="M518.298,493.533H76.984
	c-40.102,0-72.695-32.381-72.695-72.48l0,0c0-40.1,32.595-72.694,72.695-72.694h441.313c40.1,0,72.693,32.594,72.693,72.694l0,0
	C590.991,461.152,558.397,493.533,518.298,493.533z"/>
<rect x="157.183" y="384.598" fill="none" width="280.914" height="72.909"/>
<g enable-background="new    ">
	<path fill="#FFF59B" d="M173.563,384.548h29.953v10.293h-18.63v20.071h14.615v10.292h-14.615v31.395h-11.322L173.563,384.548
		L173.563,384.548z"/>
	<path fill="#FFF59B" d="M208.97,384.548h30.879v10.293h-19.558v19.042h15.542v10.292h-15.542v22.131h19.558v10.293H208.97V384.548z
		"/>
	<path fill="#FFF59B" d="M249.884,452.998c-2.848-3.088-4.271-7.445-4.271-13.072v-38.702c0-5.626,1.423-9.984,4.271-13.072
		c2.848-3.088,6.982-4.632,12.403-4.632c5.42,0,9.555,1.544,12.403,4.632c2.847,3.088,4.271,7.446,4.271,13.072v7.617h-10.705
		v-8.337c0-4.459-1.888-6.69-5.661-6.69c-3.774,0-5.661,2.231-5.661,6.69v40.247c0,4.393,1.887,6.588,5.661,6.588
		c3.772,0,5.661-2.195,5.661-6.588v-11.014h10.705v10.189c0,5.627-1.425,9.984-4.271,13.072c-2.85,3.088-6.983,4.631-12.403,4.631
		C256.865,457.628,252.73,456.083,249.884,452.998z"/>
	<path fill="#FFF59B" d="M285.755,384.548h11.322v29.335h12.146v-29.335h11.322v72.051h-11.322v-32.424h-12.146v32.424h-11.322
		V384.548z"/>
	<path fill="#FFF59B" d="M337.734,384.548h15.337l11.734,72.051h-11.322l-2.059-14.309v0.207h-12.866l-2.059,14.102h-10.499
		L337.734,384.548z M350.087,432.718l-5.045-35.613h-0.205l-4.94,35.613H350.087z"/>
	<path fill="#FFF59B" d="M370.259,384.548h16.777c5.831,0,10.087,1.356,12.764,4.066c2.677,2.711,4.015,6.88,4.015,12.506v4.426
		c0,7.48-2.471,12.215-7.411,14.204v0.206c2.744,0.823,4.685,2.504,5.815,5.043c1.133,2.539,1.698,5.938,1.698,10.189v12.66
		c0,2.059,0.067,3.723,0.205,4.992c0.138,1.271,0.479,2.521,1.029,3.756h-11.528c-0.41-1.166-0.687-2.264-0.822-3.293
		c-0.139-1.029-0.206-2.883-0.206-5.559V434.57c0-3.293-0.532-5.592-1.596-6.896c-1.064-1.303-2.899-1.955-5.507-1.955h-3.912
		v30.879h-11.321V384.548L370.259,384.548z M385.698,415.427c2.265,0,3.962-0.583,5.096-1.75c1.132-1.166,1.697-3.122,1.697-5.867
		v-5.558c0-2.607-0.463-4.494-1.39-5.661c-0.927-1.166-2.385-1.75-4.374-1.75h-5.147v20.586H385.698L385.698,415.427z"/>
</g>
</svg>
