<?xml version="1.0" encoding="utf-8"?>
<!-- Generator: Adobe Illustrator 16.0.3, SVG Export Plug-In . SVG Version: 6.00 Build 0)  -->
<!DOCTYPE svg PUBLIC "-//W3C//DTD SVG 1.1//EN" "http://www.w3.org/Graphics/SVG/1.1/DTD/svg11.dtd">
<svg version="1.1" id="Camada_1" xmlns="http://www.w3.org/2000/svg" xmlns:xlink="http://www.w3.org/1999/xlink" x="0px" y="0px"
	 width="590.702px" height="149.174px" viewBox="2.289 346.359 590.702 149.174"
	 enable-background="new 2.289 346.359 590.702 149.174" xml:space="preserve">
<path fill="#FFF59B" stroke="#CDAA04" stroke-width="4" stroke-miterlimit="10" d="M518.298,493.533H76.984
	c-40.102,0-72.695-32.381-72.695-72.48l0,0c0-40.1,32.595-72.694,72.695-72.694h441.313c40.1,0,72.693,32.594,72.693,72.694l0,0
	C590.991,461.152,558.397,493.533,518.298,493.533z"/>
<rect x="157.183" y="384.598" fill="none" width="280.914" height="72.909"/>
<g enable-background="new    ">
	<path fill="#073E57" d="M173.563,384.548h11.322v72.051h-11.322V384.548z"/>
	<path fill="#073E57" d="M197.544,384.548h14.204l11.015,43.127h0.205v-43.127h10.088v72.051h-11.632l-13.587-52.597h-0.206v52.597
		h-10.087V384.548L197.544,384.548z"/>
	<path fill="#073E57" d="M245.714,384.548h11.322v72.051h-11.322V384.548z"/>
	<path fill="#073E57" d="M273.246,452.998c-2.848-3.088-4.271-7.445-4.271-13.072v-38.702c0-5.626,1.423-9.984,4.271-13.072
		c2.847-3.088,6.982-4.632,12.403-4.632c5.42,0,9.555,1.544,12.403,4.632c2.846,3.088,4.271,7.446,4.271,13.072v7.617H291.62v-8.337
		c0-4.459-1.888-6.69-5.662-6.69c-3.773,0-5.661,2.231-5.661,6.69v40.247c0,4.393,1.888,6.588,5.661,6.588s5.662-2.195,5.662-6.588
		v-11.014h10.704v10.189c0,5.627-1.425,9.984-4.271,13.072c-2.849,3.088-6.983,4.631-12.403,4.631
		C280.228,457.628,276.093,456.083,273.246,452.998z"/>
	<path fill="#073E57" d="M313.337,384.548h11.321v72.051h-11.321V384.548z"/>
	<path fill="#073E57" d="M346.067,384.548h15.337l11.734,72.051h-11.322l-2.059-14.309v0.207h-12.866l-2.059,14.102h-10.499
		L346.067,384.548z M358.42,432.718l-5.044-35.613h-0.206l-4.94,35.613H358.42z"/>
	<path fill="#073E57" d="M382.812,384.548h16.778c5.831,0,10.087,1.356,12.763,4.066c2.677,2.711,4.015,6.88,4.015,12.506v4.426
		c0,7.48-2.471,12.215-7.41,14.204v0.206c2.743,0.823,4.684,2.504,5.814,5.043c1.133,2.539,1.698,5.938,1.698,10.189v12.66
		c0,2.059,0.067,3.723,0.206,4.992c0.137,1.271,0.479,2.521,1.028,3.756h-11.527c-0.411-1.166-0.688-2.264-0.823-3.293
		c-0.138-1.029-0.206-2.883-0.206-5.559V434.57c0-3.293-0.532-5.592-1.595-6.896c-1.065-1.303-2.9-1.955-5.507-1.955h-3.912v30.879
		h-11.322V384.548L382.812,384.548z M398.253,415.427c2.264,0,3.962-0.583,5.095-1.75c1.132-1.166,1.698-3.122,1.698-5.867v-5.558
		c0-2.607-0.464-4.494-1.391-5.661c-0.927-1.166-2.385-1.75-4.374-1.75h-5.146v20.586H398.253L398.253,415.427z"/>
</g>
</svg>
