<?xml version="1.0" encoding="utf-8"?>
<!-- Generator: Adobe Illustrator 16.0.3, SVG Export Plug-In . SVG Version: 6.00 Build 0)  -->
<!DOCTYPE svg PUBLIC "-//W3C//DTD SVG 1.1//EN" "http://www.w3.org/Graphics/SVG/1.1/DTD/svg11.dtd">
<svg version="1.1" id="Camada_1" xmlns="http://www.w3.org/2000/svg" xmlns:xlink="http://www.w3.org/1999/xlink" x="0px" y="0px"
	 width="566.9px" height="566.9px" viewBox="14.19 137.91 566.9 566.9" enable-background="new 14.19 137.91 566.9 566.9"
	 xml:space="preserve">
<circle fill="#FFF59B" stroke="#CDAA04" stroke-width="4" stroke-miterlimit="10" cx="297.64" cy="421.36" r="281.45"/>
<rect x="208.39" y="280.22" fill="none" width="178.5" height="282.282"/>
<g enable-background="new    ">
	<path fill="#073E57" d="M243.244,545.039c-11.028-11.955-16.539-28.824-16.539-50.611V344.585c0-21.781,5.511-38.656,16.539-50.611
		c11.021-11.956,27.03-17.933,48.021-17.933c20.985,0,36.994,5.978,48.021,17.933c11.021,11.956,16.538,28.83,16.538,50.611v29.49
		h-41.444v-32.279c0-17.267-7.312-25.904-21.919-25.904c-14.614,0-21.918,8.637-21.918,25.904v155.819
		c0,17.006,7.305,25.506,21.918,25.506c14.608,0,21.919-8.5,21.919-25.506v-42.641h41.444v39.451
		c0,21.789-5.517,38.656-16.538,50.611c-11.027,11.957-27.036,17.934-48.021,17.934C270.274,562.97,254.265,556.994,243.244,545.039
		z"/>
</g>
</svg>
