<?xml version="1.0" encoding="utf-8"?>
<!-- Generator: Adobe Illustrator 16.0.3, SVG Export Plug-In . SVG Version: 6.00 Build 0)  -->
<!DOCTYPE svg PUBLIC "-//W3C//DTD SVG 1.1//EN" "http://www.w3.org/Graphics/SVG/1.1/DTD/svg11.dtd">
<svg version="1.1" id="Camada_1" xmlns="http://www.w3.org/2000/svg" xmlns:xlink="http://www.w3.org/1999/xlink" x="0px" y="0px"
	 width="590.702px" height="149.174px" viewBox="2.289 346.359 590.702 149.174"
	 enable-background="new 2.289 346.359 590.702 149.174" xml:space="preserve">
<path fill="#FFF59B" stroke="#CDAA04" stroke-width="4" stroke-miterlimit="10" d="M518.298,493.533H76.984
	c-40.102,0-72.695-32.381-72.695-72.48l0,0c0-40.1,32.595-72.694,72.695-72.694h441.313c40.1,0,72.693,32.594,72.693,72.694l0,0
	C590.991,461.152,558.397,493.533,518.298,493.533z"/>
<rect x="157.183" y="384.598" fill="none" width="280.914" height="72.909"/>
<g enable-background="new    ">
	<path fill="#073E57" d="M224.046,384.548h16.16l7.205,51.569h0.206l7.205-51.569h16.16v72.051h-10.705v-54.553h-0.206
		l-8.234,54.553h-9.47l-8.234-54.553h-0.205v54.553h-9.882V384.548L224.046,384.548z"/>
	<path fill="#073E57" d="M288.171,384.548h15.338l11.733,72.051h-11.321l-2.06-14.309v0.207h-12.867l-2.059,14.102h-10.499
		L288.171,384.548z M300.524,432.718l-5.044-35.613h-0.206l-4.94,35.613H300.524z"/>
	<path fill="#073E57" d="M320.696,384.548h11.322v72.051h-11.322V384.548z"/>
	<path fill="#073E57" d="M342.722,452.945c-2.814-3.121-4.22-7.6-4.22-13.434v-4.117h10.703v4.941c0,4.668,1.956,7,5.867,7
		c1.921,0,3.379-0.566,4.375-1.699c0.994-1.133,1.492-2.967,1.492-5.506c0-3.02-0.687-5.678-2.059-7.979
		c-1.373-2.297-3.911-5.061-7.617-8.285c-4.667-4.118-7.925-7.839-9.778-11.167c-1.853-3.328-2.778-7.084-2.778-11.271
		c0-5.695,1.44-10.104,4.322-13.227c2.883-3.122,7.067-4.684,12.559-4.684c5.42,0,9.521,1.562,12.301,4.684
		c2.779,3.123,4.168,7.601,4.168,13.432v2.985h-10.704v-3.705c0-2.471-0.481-4.272-1.441-5.404c-0.962-1.132-2.366-1.698-4.22-1.698
		c-3.775,0-5.661,2.3-5.661,6.896c0,2.608,0.702,5.043,2.109,7.308c1.406,2.264,3.963,5.01,7.669,8.234
		c4.734,4.117,7.993,7.858,9.778,11.219c1.782,3.363,2.676,7.309,2.676,11.838c0,5.902-1.459,10.432-4.374,13.588
		c-2.918,3.154-7.154,4.732-12.712,4.732C349.686,457.628,345.535,456.07,342.722,452.945z"/>
</g>
</svg>
