<?xml version="1.0" encoding="utf-8"?>
<!-- Generator: Adobe Illustrator 16.0.3, SVG Export Plug-In . SVG Version: 6.00 Build 0)  -->
<!DOCTYPE svg PUBLIC "-//W3C//DTD SVG 1.1//EN" "http://www.w3.org/Graphics/SVG/1.1/DTD/svg11.dtd">
<svg version="1.1" id="Camada_1" xmlns="http://www.w3.org/2000/svg" xmlns:xlink="http://www.w3.org/1999/xlink" x="0px" y="0px"
	 width="590.702px" height="149.174px" viewBox="2.289 346.359 590.702 149.174"
	 enable-background="new 2.289 346.359 590.702 149.174" xml:space="preserve">
<path fill="#FFF59B" stroke="#CDAA04" stroke-width="4" stroke-miterlimit="10" d="M518.298,493.533H76.984
	c-40.102,0-72.695-32.381-72.695-72.48l0,0c0-40.1,32.595-72.694,72.695-72.694h441.313c40.1,0,72.693,32.594,72.693,72.694l0,0
	C590.991,461.152,558.397,493.533,518.298,493.533z"/>
<rect x="157.183" y="384.598" fill="none" width="280.914" height="72.909"/>
<g enable-background="new    ">
	<path fill="#073E57" d="M180.404,384.548h11.425l7.411,55.891h0.206l7.411-55.891h10.396l-10.91,72.051h-15.027L180.404,384.548z"
		/>
	<path fill="#073E57" d="M226.103,452.894c-2.951-3.156-4.426-7.617-4.426-13.383v-37.877c0-5.764,1.475-10.224,4.426-13.381
		c2.95-3.155,7.205-4.735,12.763-4.735c5.559,0,9.813,1.58,12.764,4.735c2.949,3.157,4.427,7.617,4.427,13.381v37.877
		c0,5.766-1.478,10.227-4.427,13.383c-2.95,3.156-7.205,4.734-12.764,4.734C233.308,457.628,229.053,456.05,226.103,452.894z
		 M244.734,440.234v-39.32c0-4.735-1.956-7.103-5.867-7.103S233,396.179,233,400.914v39.32c0,4.734,1.956,7.102,5.867,7.102
		S244.734,444.968,244.734,440.234z"/>
	<path fill="#073E57" d="M263.672,384.548h11.322v61.758h18.63v10.293h-29.953L263.672,384.548L263.672,384.548z"/>
	<path fill="#073E57" d="M299.905,394.841h-11.837v-10.293h34.996v10.293h-11.837v61.758h-11.322V394.841z"/>
	<path fill="#073E57" d="M332.533,384.548h15.337l11.734,72.051h-11.322l-2.059-14.309v0.207h-12.866l-2.059,14.102h-10.498
		L332.533,384.548z M344.886,432.718l-5.044-35.613h-0.206l-4.94,35.613H344.886z"/>
	<path fill="#073E57" d="M365.058,384.548h16.778c5.83,0,10.087,1.356,12.763,4.066c2.677,2.711,4.015,6.88,4.015,12.506v4.426
		c0,7.48-2.471,12.215-7.411,14.204v0.206c2.744,0.823,4.685,2.504,5.815,5.043c1.133,2.539,1.698,5.938,1.698,10.189v12.66
		c0,2.059,0.067,3.723,0.206,4.992c0.137,1.271,0.479,2.521,1.028,3.756h-11.527c-0.411-1.166-0.688-2.264-0.823-3.293
		c-0.138-1.029-0.206-2.883-0.206-5.559V434.57c0-3.293-0.532-5.592-1.595-6.896c-1.065-1.303-2.9-1.955-5.508-1.955h-3.911v30.879
		h-11.322V384.548z M380.498,415.427c2.265,0,3.963-0.583,5.096-1.75c1.132-1.166,1.697-3.122,1.697-5.867v-5.558
		c0-2.607-0.463-4.494-1.39-5.661c-0.927-1.166-2.385-1.75-4.374-1.75h-5.146v20.586H380.498L380.498,415.427z"/>
</g>
</svg>
